<mxfile host="Electron" agent="Mozilla/5.0 (Windows NT 10.0; Win64; x64) AppleWebKit/537.36 (KHTML, like Gecko) draw.io/26.0.16 Chrome/132.0.6834.196 Electron/34.2.0 Safari/537.36" version="26.0.16">
  <diagram name="페이지-1" id="Ep4x1jEOMxfKwK9dOPfn">
    <mxGraphModel dx="944" dy="1656" grid="1" gridSize="10" guides="1" tooltips="1" connect="1" arrows="1" fold="1" page="1" pageScale="1" pageWidth="827" pageHeight="1169" math="0" shadow="0">
      <root>
        <mxCell id="0" />
        <mxCell id="1" parent="0" />
        <mxCell id="3lsIib_EW8hraM5ZjS6X-7" value="" style="edgeStyle=orthogonalEdgeStyle;rounded=0;orthogonalLoop=1;jettySize=auto;html=1;" parent="1" source="3lsIib_EW8hraM5ZjS6X-1" target="3lsIib_EW8hraM5ZjS6X-6" edge="1">
          <mxGeometry relative="1" as="geometry" />
        </mxCell>
        <mxCell id="3lsIib_EW8hraM5ZjS6X-1" value="시작" style="strokeWidth=2;html=1;shape=mxgraph.flowchart.terminator;whiteSpace=wrap;" parent="1" vertex="1">
          <mxGeometry x="364" y="40" width="100" height="60" as="geometry" />
        </mxCell>
        <mxCell id="3lsIib_EW8hraM5ZjS6X-2" value="끝" style="strokeWidth=2;html=1;shape=mxgraph.flowchart.terminator;whiteSpace=wrap;" parent="1" vertex="1">
          <mxGeometry x="364" y="980" width="100" height="60" as="geometry" />
        </mxCell>
        <mxCell id="3lsIib_EW8hraM5ZjS6X-9" value="" style="edgeStyle=orthogonalEdgeStyle;rounded=0;orthogonalLoop=1;jettySize=auto;html=1;" parent="1" source="3lsIib_EW8hraM5ZjS6X-6" target="3lsIib_EW8hraM5ZjS6X-8" edge="1">
          <mxGeometry relative="1" as="geometry" />
        </mxCell>
        <mxCell id="3lsIib_EW8hraM5ZjS6X-6" value="나이 입력" style="shape=parallelogram;html=1;strokeWidth=2;perimeter=parallelogramPerimeter;whiteSpace=wrap;rounded=1;arcSize=12;size=0.23;" parent="1" vertex="1">
          <mxGeometry x="364" y="190" width="100" height="60" as="geometry" />
        </mxCell>
        <mxCell id="3lsIib_EW8hraM5ZjS6X-11" value="" style="edgeStyle=orthogonalEdgeStyle;rounded=0;orthogonalLoop=1;jettySize=auto;html=1;" parent="1" source="3lsIib_EW8hraM5ZjS6X-8" target="3lsIib_EW8hraM5ZjS6X-10" edge="1">
          <mxGeometry relative="1" as="geometry" />
        </mxCell>
        <mxCell id="3lsIib_EW8hraM5ZjS6X-15" value="" style="edgeStyle=orthogonalEdgeStyle;rounded=0;orthogonalLoop=1;jettySize=auto;html=1;" parent="1" source="3lsIib_EW8hraM5ZjS6X-8" target="3lsIib_EW8hraM5ZjS6X-14" edge="1">
          <mxGeometry relative="1" as="geometry" />
        </mxCell>
        <mxCell id="3lsIib_EW8hraM5ZjS6X-8" value="age &amp;gt;= 8" style="strokeWidth=2;html=1;shape=mxgraph.flowchart.decision;whiteSpace=wrap;" parent="1" vertex="1">
          <mxGeometry x="364" y="320" width="100" height="100" as="geometry" />
        </mxCell>
        <mxCell id="3lsIib_EW8hraM5ZjS6X-10" value="학교에 다닙니다." style="strokeWidth=2;html=1;shape=mxgraph.flowchart.document2;whiteSpace=wrap;size=0.25;" parent="1" vertex="1">
          <mxGeometry x="540" y="340" width="100" height="60" as="geometry" />
        </mxCell>
        <mxCell id="3lsIib_EW8hraM5ZjS6X-13" value="YES" style="text;html=1;align=center;verticalAlign=middle;whiteSpace=wrap;rounded=0;" parent="1" vertex="1">
          <mxGeometry x="460" y="320" width="60" height="30" as="geometry" />
        </mxCell>
        <mxCell id="3lsIib_EW8hraM5ZjS6X-18" value="" style="edgeStyle=orthogonalEdgeStyle;rounded=0;orthogonalLoop=1;jettySize=auto;html=1;" parent="1" source="3lsIib_EW8hraM5ZjS6X-14" target="3lsIib_EW8hraM5ZjS6X-17" edge="1">
          <mxGeometry relative="1" as="geometry" />
        </mxCell>
        <mxCell id="3lsIib_EW8hraM5ZjS6X-14" value="if 코드블럭&lt;div&gt;종료&lt;/div&gt;" style="shape=parallelogram;html=1;strokeWidth=2;perimeter=parallelogramPerimeter;whiteSpace=wrap;rounded=1;arcSize=12;size=0.23;" parent="1" vertex="1">
          <mxGeometry x="364" y="460" width="100" height="60" as="geometry" />
        </mxCell>
        <mxCell id="3lsIib_EW8hraM5ZjS6X-21" value="" style="edgeStyle=orthogonalEdgeStyle;rounded=0;orthogonalLoop=1;jettySize=auto;html=1;" parent="1" source="3lsIib_EW8hraM5ZjS6X-17" target="3lsIib_EW8hraM5ZjS6X-20" edge="1">
          <mxGeometry relative="1" as="geometry" />
        </mxCell>
        <mxCell id="3lsIib_EW8hraM5ZjS6X-23" value="" style="edgeStyle=orthogonalEdgeStyle;rounded=0;orthogonalLoop=1;jettySize=auto;html=1;" parent="1" source="3lsIib_EW8hraM5ZjS6X-17" target="3lsIib_EW8hraM5ZjS6X-19" edge="1">
          <mxGeometry relative="1" as="geometry" />
        </mxCell>
        <mxCell id="3lsIib_EW8hraM5ZjS6X-17" value="age &amp;lt; 8" style="strokeWidth=2;html=1;shape=mxgraph.flowchart.decision;whiteSpace=wrap;" parent="1" vertex="1">
          <mxGeometry x="364" y="585" width="100" height="100" as="geometry" />
        </mxCell>
        <mxCell id="3lsIib_EW8hraM5ZjS6X-27" value="" style="edgeStyle=orthogonalEdgeStyle;rounded=0;orthogonalLoop=1;jettySize=auto;html=1;" parent="1" source="3lsIib_EW8hraM5ZjS6X-19" target="3lsIib_EW8hraM5ZjS6X-26" edge="1">
          <mxGeometry relative="1" as="geometry" />
        </mxCell>
        <mxCell id="3lsIib_EW8hraM5ZjS6X-19" value="if 코드블럭&lt;div&gt;종료&lt;/div&gt;" style="shape=parallelogram;html=1;strokeWidth=2;perimeter=parallelogramPerimeter;whiteSpace=wrap;rounded=1;arcSize=12;size=0.23;" parent="1" vertex="1">
          <mxGeometry x="364" y="730" width="100" height="60" as="geometry" />
        </mxCell>
        <mxCell id="3lsIib_EW8hraM5ZjS6X-20" value="학교에 다닙니다." style="strokeWidth=2;html=1;shape=mxgraph.flowchart.document2;whiteSpace=wrap;size=0.25;" parent="1" vertex="1">
          <mxGeometry x="550" y="605" width="100" height="60" as="geometry" />
        </mxCell>
        <mxCell id="3lsIib_EW8hraM5ZjS6X-22" value="YES" style="text;html=1;align=center;verticalAlign=middle;whiteSpace=wrap;rounded=0;" parent="1" vertex="1">
          <mxGeometry x="464" y="590" width="60" height="30" as="geometry" />
        </mxCell>
        <mxCell id="3lsIib_EW8hraM5ZjS6X-24" value="" style="endArrow=none;html=1;rounded=0;exitX=1;exitY=0.5;exitDx=0;exitDy=0;entryX=0.48;entryY=0.883;entryDx=0;entryDy=0;entryPerimeter=0;endFill=1;startArrow=block;startFill=0;" parent="1" source="3lsIib_EW8hraM5ZjS6X-14" target="3lsIib_EW8hraM5ZjS6X-10" edge="1">
          <mxGeometry width="50" height="50" relative="1" as="geometry">
            <mxPoint x="490" y="590" as="sourcePoint" />
            <mxPoint x="610" y="390" as="targetPoint" />
            <Array as="points">
              <mxPoint x="588" y="490" />
            </Array>
          </mxGeometry>
        </mxCell>
        <mxCell id="3lsIib_EW8hraM5ZjS6X-25" value="" style="endArrow=none;html=1;rounded=0;exitX=1;exitY=0.5;exitDx=0;exitDy=0;entryX=0.51;entryY=0.9;entryDx=0;entryDy=0;entryPerimeter=0;endFill=1;startArrow=block;startFill=0;" parent="1" target="3lsIib_EW8hraM5ZjS6X-20" edge="1">
          <mxGeometry width="50" height="50" relative="1" as="geometry">
            <mxPoint x="450" y="762" as="sourcePoint" />
            <mxPoint x="585" y="665" as="targetPoint" />
            <Array as="points">
              <mxPoint x="601" y="760" />
            </Array>
          </mxGeometry>
        </mxCell>
        <mxCell id="3lsIib_EW8hraM5ZjS6X-28" value="" style="edgeStyle=orthogonalEdgeStyle;rounded=0;orthogonalLoop=1;jettySize=auto;html=1;" parent="1" source="3lsIib_EW8hraM5ZjS6X-26" target="3lsIib_EW8hraM5ZjS6X-2" edge="1">
          <mxGeometry relative="1" as="geometry" />
        </mxCell>
        <mxCell id="3lsIib_EW8hraM5ZjS6X-26" value="프로그램&lt;div&gt;종료&lt;/div&gt;" style="shape=parallelogram;html=1;strokeWidth=2;perimeter=parallelogramPerimeter;whiteSpace=wrap;rounded=1;arcSize=12;size=0.23;" parent="1" vertex="1">
          <mxGeometry x="364" y="860" width="100" height="60" as="geometry" />
        </mxCell>
        <mxCell id="3lsIib_EW8hraM5ZjS6X-29" value="" style="edgeStyle=orthogonalEdgeStyle;rounded=0;orthogonalLoop=1;jettySize=auto;html=1;" parent="1" source="3lsIib_EW8hraM5ZjS6X-30" target="3lsIib_EW8hraM5ZjS6X-33" edge="1">
          <mxGeometry relative="1" as="geometry" />
        </mxCell>
        <mxCell id="3lsIib_EW8hraM5ZjS6X-30" value="시작" style="strokeWidth=2;html=1;shape=mxgraph.flowchart.terminator;whiteSpace=wrap;" parent="1" vertex="1">
          <mxGeometry x="1150" y="70" width="100" height="60" as="geometry" />
        </mxCell>
        <mxCell id="3lsIib_EW8hraM5ZjS6X-31" value="끝" style="strokeWidth=2;html=1;shape=mxgraph.flowchart.terminator;whiteSpace=wrap;" parent="1" vertex="1">
          <mxGeometry x="1150" y="720" width="100" height="60" as="geometry" />
        </mxCell>
        <mxCell id="3lsIib_EW8hraM5ZjS6X-32" value="" style="edgeStyle=orthogonalEdgeStyle;rounded=0;orthogonalLoop=1;jettySize=auto;html=1;" parent="1" source="3lsIib_EW8hraM5ZjS6X-33" target="3lsIib_EW8hraM5ZjS6X-36" edge="1">
          <mxGeometry relative="1" as="geometry" />
        </mxCell>
        <mxCell id="3lsIib_EW8hraM5ZjS6X-33" value="나이 입력" style="shape=parallelogram;html=1;strokeWidth=2;perimeter=parallelogramPerimeter;whiteSpace=wrap;rounded=1;arcSize=12;size=0.23;" parent="1" vertex="1">
          <mxGeometry x="1150" y="220" width="100" height="60" as="geometry" />
        </mxCell>
        <mxCell id="3lsIib_EW8hraM5ZjS6X-34" value="" style="edgeStyle=orthogonalEdgeStyle;rounded=0;orthogonalLoop=1;jettySize=auto;html=1;" parent="1" source="3lsIib_EW8hraM5ZjS6X-36" target="3lsIib_EW8hraM5ZjS6X-37" edge="1">
          <mxGeometry relative="1" as="geometry" />
        </mxCell>
        <mxCell id="3lsIib_EW8hraM5ZjS6X-53" value="" style="edgeStyle=orthogonalEdgeStyle;rounded=0;orthogonalLoop=1;jettySize=auto;html=1;" parent="1" source="3lsIib_EW8hraM5ZjS6X-36" target="3lsIib_EW8hraM5ZjS6X-52" edge="1">
          <mxGeometry relative="1" as="geometry" />
        </mxCell>
        <mxCell id="3lsIib_EW8hraM5ZjS6X-36" value="age &amp;gt;= 8" style="strokeWidth=2;html=1;shape=mxgraph.flowchart.decision;whiteSpace=wrap;" parent="1" vertex="1">
          <mxGeometry x="1150" y="350" width="100" height="100" as="geometry" />
        </mxCell>
        <mxCell id="3lsIib_EW8hraM5ZjS6X-37" value="학교에 다닙니다." style="strokeWidth=2;html=1;shape=mxgraph.flowchart.document2;whiteSpace=wrap;size=0.25;" parent="1" vertex="1">
          <mxGeometry x="1326" y="370" width="100" height="60" as="geometry" />
        </mxCell>
        <mxCell id="3lsIib_EW8hraM5ZjS6X-38" value="YES" style="text;html=1;align=center;verticalAlign=middle;whiteSpace=wrap;rounded=0;" parent="1" vertex="1">
          <mxGeometry x="1246" y="350" width="60" height="30" as="geometry" />
        </mxCell>
        <mxCell id="3lsIib_EW8hraM5ZjS6X-48" value="" style="endArrow=none;html=1;rounded=0;exitX=1;exitY=0.5;exitDx=0;exitDy=0;entryX=0.48;entryY=0.883;entryDx=0;entryDy=0;entryPerimeter=0;endFill=1;startArrow=block;startFill=0;" parent="1" source="3lsIib_EW8hraM5ZjS6X-51" target="3lsIib_EW8hraM5ZjS6X-37" edge="1">
          <mxGeometry width="50" height="50" relative="1" as="geometry">
            <mxPoint x="1238.5" y="520" as="sourcePoint" />
            <mxPoint x="1396" y="420" as="targetPoint" />
            <Array as="points">
              <mxPoint x="1374" y="630" />
              <mxPoint x="1374" y="520" />
            </Array>
          </mxGeometry>
        </mxCell>
        <mxCell id="3lsIib_EW8hraM5ZjS6X-50" value="" style="edgeStyle=orthogonalEdgeStyle;rounded=0;orthogonalLoop=1;jettySize=auto;html=1;" parent="1" source="3lsIib_EW8hraM5ZjS6X-51" target="3lsIib_EW8hraM5ZjS6X-31" edge="1">
          <mxGeometry relative="1" as="geometry" />
        </mxCell>
        <mxCell id="3lsIib_EW8hraM5ZjS6X-51" value="프로그램&lt;div&gt;종료&lt;/div&gt;" style="shape=parallelogram;html=1;strokeWidth=2;perimeter=parallelogramPerimeter;whiteSpace=wrap;rounded=1;arcSize=12;size=0.23;" parent="1" vertex="1">
          <mxGeometry x="1150" y="600" width="100" height="60" as="geometry" />
        </mxCell>
        <mxCell id="3lsIib_EW8hraM5ZjS6X-54" value="" style="edgeStyle=orthogonalEdgeStyle;rounded=0;orthogonalLoop=1;jettySize=auto;html=1;" parent="1" source="3lsIib_EW8hraM5ZjS6X-52" target="3lsIib_EW8hraM5ZjS6X-51" edge="1">
          <mxGeometry relative="1" as="geometry" />
        </mxCell>
        <mxCell id="3lsIib_EW8hraM5ZjS6X-52" value="학교에 다니지&lt;div&gt;않습니다.&lt;/div&gt;" style="strokeWidth=2;html=1;shape=mxgraph.flowchart.document2;whiteSpace=wrap;size=0.25;" parent="1" vertex="1">
          <mxGeometry x="1150" y="490" width="100" height="60" as="geometry" />
        </mxCell>
        <mxCell id="3lsIib_EW8hraM5ZjS6X-55" value="NO" style="text;html=1;align=center;verticalAlign=middle;whiteSpace=wrap;rounded=0;" parent="1" vertex="1">
          <mxGeometry x="1200" y="450" width="60" height="30" as="geometry" />
        </mxCell>
        <mxCell id="3lsIib_EW8hraM5ZjS6X-60" value="&lt;font style=&quot;font-size: 40px;&quot;&gt;IF, ELSE&lt;/font&gt;" style="text;html=1;align=center;verticalAlign=middle;resizable=0;points=[];autosize=1;strokeColor=none;fillColor=none;" parent="1" vertex="1">
          <mxGeometry x="900" y="70" width="180" height="60" as="geometry" />
        </mxCell>
        <mxCell id="3lsIib_EW8hraM5ZjS6X-69" value="" style="edgeStyle=orthogonalEdgeStyle;rounded=0;orthogonalLoop=1;jettySize=auto;html=1;" parent="1" source="3lsIib_EW8hraM5ZjS6X-61" target="3lsIib_EW8hraM5ZjS6X-62" edge="1">
          <mxGeometry relative="1" as="geometry" />
        </mxCell>
        <mxCell id="3lsIib_EW8hraM5ZjS6X-61" value="시작" style="strokeWidth=2;html=1;shape=mxgraph.flowchart.terminator;whiteSpace=wrap;" parent="1" vertex="1">
          <mxGeometry x="321" y="1296" width="100" height="60" as="geometry" />
        </mxCell>
        <mxCell id="3lsIib_EW8hraM5ZjS6X-70" value="" style="edgeStyle=orthogonalEdgeStyle;rounded=0;orthogonalLoop=1;jettySize=auto;html=1;" parent="1" source="3lsIib_EW8hraM5ZjS6X-62" target="3lsIib_EW8hraM5ZjS6X-63" edge="1">
          <mxGeometry relative="1" as="geometry" />
        </mxCell>
        <mxCell id="3lsIib_EW8hraM5ZjS6X-62" value="숫자 입력" style="shape=parallelogram;html=1;strokeWidth=2;perimeter=parallelogramPerimeter;whiteSpace=wrap;rounded=1;arcSize=12;size=0.23;" parent="1" vertex="1">
          <mxGeometry x="321" y="1426" width="100" height="60" as="geometry" />
        </mxCell>
        <mxCell id="3lsIib_EW8hraM5ZjS6X-71" value="" style="edgeStyle=orthogonalEdgeStyle;rounded=0;orthogonalLoop=1;jettySize=auto;html=1;" parent="1" source="3lsIib_EW8hraM5ZjS6X-63" target="3lsIib_EW8hraM5ZjS6X-64" edge="1">
          <mxGeometry relative="1" as="geometry" />
        </mxCell>
        <mxCell id="3lsIib_EW8hraM5ZjS6X-79" value="" style="edgeStyle=orthogonalEdgeStyle;rounded=0;orthogonalLoop=1;jettySize=auto;html=1;" parent="1" source="3lsIib_EW8hraM5ZjS6X-63" target="3lsIib_EW8hraM5ZjS6X-77" edge="1">
          <mxGeometry relative="1" as="geometry" />
        </mxCell>
        <mxCell id="3lsIib_EW8hraM5ZjS6X-63" value="3의 배수" style="strokeWidth=2;html=1;shape=mxgraph.flowchart.decision;whiteSpace=wrap;" parent="1" vertex="1">
          <mxGeometry x="321" y="1556" width="100" height="100" as="geometry" />
        </mxCell>
        <mxCell id="3lsIib_EW8hraM5ZjS6X-72" value="" style="edgeStyle=orthogonalEdgeStyle;rounded=0;orthogonalLoop=1;jettySize=auto;html=1;" parent="1" source="3lsIib_EW8hraM5ZjS6X-64" target="3lsIib_EW8hraM5ZjS6X-66" edge="1">
          <mxGeometry relative="1" as="geometry" />
        </mxCell>
        <mxCell id="3lsIib_EW8hraM5ZjS6X-64" value="3의 배수 출력" style="strokeWidth=2;html=1;shape=mxgraph.flowchart.document2;whiteSpace=wrap;size=0.25;" parent="1" vertex="1">
          <mxGeometry x="321" y="1706" width="100" height="60" as="geometry" />
        </mxCell>
        <mxCell id="3lsIib_EW8hraM5ZjS6X-65" value="YES" style="text;html=1;align=center;verticalAlign=middle;whiteSpace=wrap;rounded=0;" parent="1" vertex="1">
          <mxGeometry x="381" y="1656" width="60" height="30" as="geometry" />
        </mxCell>
        <mxCell id="3lsIib_EW8hraM5ZjS6X-73" value="" style="edgeStyle=orthogonalEdgeStyle;rounded=0;orthogonalLoop=1;jettySize=auto;html=1;" parent="1" source="3lsIib_EW8hraM5ZjS6X-66" target="3lsIib_EW8hraM5ZjS6X-67" edge="1">
          <mxGeometry relative="1" as="geometry" />
        </mxCell>
        <mxCell id="3lsIib_EW8hraM5ZjS6X-80" value="" style="edgeStyle=orthogonalEdgeStyle;rounded=0;orthogonalLoop=1;jettySize=auto;html=1;" parent="1" source="3lsIib_EW8hraM5ZjS6X-66" target="3lsIib_EW8hraM5ZjS6X-78" edge="1">
          <mxGeometry relative="1" as="geometry" />
        </mxCell>
        <mxCell id="3lsIib_EW8hraM5ZjS6X-66" value="5의 배수" style="strokeWidth=2;html=1;shape=mxgraph.flowchart.decision;whiteSpace=wrap;" parent="1" vertex="1">
          <mxGeometry x="321" y="1826" width="100" height="100" as="geometry" />
        </mxCell>
        <mxCell id="3lsIib_EW8hraM5ZjS6X-74" value="" style="edgeStyle=orthogonalEdgeStyle;rounded=0;orthogonalLoop=1;jettySize=auto;html=1;" parent="1" source="3lsIib_EW8hraM5ZjS6X-67" target="3lsIib_EW8hraM5ZjS6X-68" edge="1">
          <mxGeometry relative="1" as="geometry" />
        </mxCell>
        <mxCell id="3lsIib_EW8hraM5ZjS6X-67" value="3의 배수이면서&lt;div&gt;5의 배수 출력&lt;/div&gt;" style="strokeWidth=2;html=1;shape=mxgraph.flowchart.document2;whiteSpace=wrap;size=0.25;" parent="1" vertex="1">
          <mxGeometry x="321" y="1996" width="100" height="60" as="geometry" />
        </mxCell>
        <mxCell id="3lsIib_EW8hraM5ZjS6X-68" value="끝" style="strokeWidth=2;html=1;shape=mxgraph.flowchart.terminator;whiteSpace=wrap;" parent="1" vertex="1">
          <mxGeometry x="321" y="2116" width="100" height="60" as="geometry" />
        </mxCell>
        <mxCell id="3lsIib_EW8hraM5ZjS6X-75" value="YES" style="text;html=1;align=center;verticalAlign=middle;whiteSpace=wrap;rounded=0;" parent="1" vertex="1">
          <mxGeometry x="381" y="1936" width="60" height="30" as="geometry" />
        </mxCell>
        <mxCell id="3lsIib_EW8hraM5ZjS6X-77" value="끝" style="strokeWidth=2;html=1;shape=mxgraph.flowchart.terminator;whiteSpace=wrap;" parent="1" vertex="1">
          <mxGeometry x="501" y="1576" width="100" height="60" as="geometry" />
        </mxCell>
        <mxCell id="3lsIib_EW8hraM5ZjS6X-78" value="끝" style="strokeWidth=2;html=1;shape=mxgraph.flowchart.terminator;whiteSpace=wrap;" parent="1" vertex="1">
          <mxGeometry x="501" y="1846" width="100" height="60" as="geometry" />
        </mxCell>
        <mxCell id="3lsIib_EW8hraM5ZjS6X-81" value="NO&lt;span style=&quot;color: rgba(0, 0, 0, 0); font-family: monospace; font-size: 0px; text-align: start; text-wrap-mode: nowrap;&quot;&gt;%3CmxGraphModel%3E%3Croot%3E%3CmxCell%20id%3D%220%22%2F%3E%3CmxCell%20id%3D%221%22%20parent%3D%220%22%2F%3E%3CmxCell%20id%3D%222%22%20value%3D%22YES%22%20style%3D%22text%3Bhtml%3D1%3Balign%3Dcenter%3BverticalAlign%3Dmiddle%3BwhiteSpace%3Dwrap%3Brounded%3D0%3B%22%20vertex%3D%221%22%20parent%3D%221%22%3E%3CmxGeometry%20x%3D%22420%22%20y%3D%221900%22%20width%3D%2260%22%20height%3D%2230%22%20as%3D%22geometry%22%2F%3E%3C%2FmxCell%3E%3C%2Froot%3E%3C%2FmxGraphModel%3E&lt;/span&gt;" style="text;html=1;align=center;verticalAlign=middle;whiteSpace=wrap;rounded=0;" parent="1" vertex="1">
          <mxGeometry x="411" y="1836" width="60" height="30" as="geometry" />
        </mxCell>
        <mxCell id="3lsIib_EW8hraM5ZjS6X-82" value="NO&lt;span style=&quot;color: rgba(0, 0, 0, 0); font-family: monospace; font-size: 0px; text-align: start; text-wrap-mode: nowrap;&quot;&gt;%3CmxGraphModel%3E%3Croot%3E%3CmxCell%20id%3D%220%22%2F%3E%3CmxCell%20id%3D%221%22%20parent%3D%220%22%2F%3E%3CmxCell%20id%3D%222%22%20value%3D%22YES%22%20style%3D%22text%3Bhtml%3D1%3Balign%3Dcenter%3BverticalAlign%3Dmiddle%3BwhiteSpace%3Dwrap%3Brounded%3D0%3B%22%20vertex%3D%221%22%20parent%3D%221%22%3E%3CmxGeometry%20x%3D%22420%22%20y%3D%221900%22%20width%3D%2260%22%20height%3D%2230%22%20as%3D%22geometry%22%2F%3E%3C%2FmxCell%3E%3C%2Froot%3E%3C%2FmxGraphModel%3E&lt;/span&gt;" style="text;html=1;align=center;verticalAlign=middle;whiteSpace=wrap;rounded=0;" parent="1" vertex="1">
          <mxGeometry x="421" y="1566" width="60" height="30" as="geometry" />
        </mxCell>
        <mxCell id="3lsIib_EW8hraM5ZjS6X-84" value="문제 1" style="shape=umlFrame;whiteSpace=wrap;html=1;pointerEvents=0;" parent="1" vertex="1">
          <mxGeometry x="185" y="1236" width="546" height="960" as="geometry" />
        </mxCell>
        <mxCell id="3lsIib_EW8hraM5ZjS6X-85" value="IF" style="shape=umlFrame;whiteSpace=wrap;html=1;pointerEvents=0;" parent="1" vertex="1">
          <mxGeometry x="190" y="20" width="546" height="1070" as="geometry" />
        </mxCell>
        <mxCell id="3lsIib_EW8hraM5ZjS6X-86" value="IF,ELSE" style="shape=umlFrame;whiteSpace=wrap;html=1;pointerEvents=0;" parent="1" vertex="1">
          <mxGeometry x="890" y="20" width="590" height="860" as="geometry" />
        </mxCell>
        <mxCell id="3lsIib_EW8hraM5ZjS6X-87" value="문제 2" style="shape=umlFrame;whiteSpace=wrap;html=1;pointerEvents=0;" parent="1" vertex="1">
          <mxGeometry x="860" y="1236" width="546" height="960" as="geometry" />
        </mxCell>
        <mxCell id="3lsIib_EW8hraM5ZjS6X-96" value="" style="edgeStyle=orthogonalEdgeStyle;rounded=0;orthogonalLoop=1;jettySize=auto;html=1;" parent="1" source="3lsIib_EW8hraM5ZjS6X-88" target="3lsIib_EW8hraM5ZjS6X-89" edge="1">
          <mxGeometry relative="1" as="geometry" />
        </mxCell>
        <mxCell id="3lsIib_EW8hraM5ZjS6X-88" value="시작" style="strokeWidth=2;html=1;shape=mxgraph.flowchart.terminator;whiteSpace=wrap;" parent="1" vertex="1">
          <mxGeometry x="1083" y="1296" width="100" height="60" as="geometry" />
        </mxCell>
        <mxCell id="3lsIib_EW8hraM5ZjS6X-97" value="" style="edgeStyle=orthogonalEdgeStyle;rounded=0;orthogonalLoop=1;jettySize=auto;html=1;" parent="1" source="3lsIib_EW8hraM5ZjS6X-89" target="3lsIib_EW8hraM5ZjS6X-90" edge="1">
          <mxGeometry relative="1" as="geometry" />
        </mxCell>
        <mxCell id="3lsIib_EW8hraM5ZjS6X-89" value="숫자 입력" style="shape=parallelogram;html=1;strokeWidth=2;perimeter=parallelogramPerimeter;whiteSpace=wrap;rounded=1;arcSize=12;size=0.23;" parent="1" vertex="1">
          <mxGeometry x="1083" y="1440" width="100" height="60" as="geometry" />
        </mxCell>
        <mxCell id="3lsIib_EW8hraM5ZjS6X-100" value="" style="edgeStyle=orthogonalEdgeStyle;rounded=0;orthogonalLoop=1;jettySize=auto;html=1;" parent="1" source="3lsIib_EW8hraM5ZjS6X-90" target="3lsIib_EW8hraM5ZjS6X-92" edge="1">
          <mxGeometry relative="1" as="geometry" />
        </mxCell>
        <mxCell id="3lsIib_EW8hraM5ZjS6X-103" value="" style="edgeStyle=orthogonalEdgeStyle;rounded=0;orthogonalLoop=1;jettySize=auto;html=1;" parent="1" source="3lsIib_EW8hraM5ZjS6X-90" target="3lsIib_EW8hraM5ZjS6X-91" edge="1">
          <mxGeometry relative="1" as="geometry" />
        </mxCell>
        <mxCell id="3lsIib_EW8hraM5ZjS6X-90" value="num1 &amp;gt;num2" style="strokeWidth=2;html=1;shape=mxgraph.flowchart.decision;whiteSpace=wrap;" parent="1" vertex="1">
          <mxGeometry x="1083" y="1576" width="100" height="100" as="geometry" />
        </mxCell>
        <mxCell id="3lsIib_EW8hraM5ZjS6X-91" value="num1이 num2&lt;div&gt;보다 더 큽니다&lt;/div&gt;" style="strokeWidth=2;html=1;shape=mxgraph.flowchart.document2;whiteSpace=wrap;size=0.25;" parent="1" vertex="1">
          <mxGeometry x="1250" y="1596" width="100" height="60" as="geometry" />
        </mxCell>
        <mxCell id="3lsIib_EW8hraM5ZjS6X-101" value="" style="edgeStyle=orthogonalEdgeStyle;rounded=0;orthogonalLoop=1;jettySize=auto;html=1;" parent="1" source="3lsIib_EW8hraM5ZjS6X-92" target="3lsIib_EW8hraM5ZjS6X-95" edge="1">
          <mxGeometry relative="1" as="geometry" />
        </mxCell>
        <mxCell id="3lsIib_EW8hraM5ZjS6X-92" value="num2가 num1&lt;br&gt;&lt;div&gt;보다 더 큽니다&lt;/div&gt;" style="strokeWidth=2;html=1;shape=mxgraph.flowchart.document2;whiteSpace=wrap;size=0.25;" parent="1" vertex="1">
          <mxGeometry x="1083" y="1754" width="100" height="66" as="geometry" />
        </mxCell>
        <mxCell id="3lsIib_EW8hraM5ZjS6X-93" value="YES" style="text;html=1;align=center;verticalAlign=middle;resizable=0;points=[];autosize=1;strokeColor=none;fillColor=none;" parent="1" vertex="1">
          <mxGeometry x="1183" y="1576" width="50" height="30" as="geometry" />
        </mxCell>
        <mxCell id="3lsIib_EW8hraM5ZjS6X-94" value="NO" style="text;html=1;align=center;verticalAlign=middle;resizable=0;points=[];autosize=1;strokeColor=none;fillColor=none;" parent="1" vertex="1">
          <mxGeometry x="1150" y="1701" width="40" height="30" as="geometry" />
        </mxCell>
        <mxCell id="3lsIib_EW8hraM5ZjS6X-95" value="끝" style="strokeWidth=2;html=1;shape=mxgraph.flowchart.terminator;whiteSpace=wrap;" parent="1" vertex="1">
          <mxGeometry x="1083" y="1906" width="100" height="60" as="geometry" />
        </mxCell>
        <mxCell id="3lsIib_EW8hraM5ZjS6X-104" value="" style="endArrow=none;html=1;rounded=0;entryX=0.553;entryY=0.761;entryDx=0;entryDy=0;entryPerimeter=0;endFill=1;startArrow=block;startFill=0;" parent="1" source="3lsIib_EW8hraM5ZjS6X-95" target="3lsIib_EW8hraM5ZjS6X-91" edge="1">
          <mxGeometry width="50" height="50" relative="1" as="geometry">
            <mxPoint x="1183" y="1913" as="sourcePoint" />
            <mxPoint x="1318" y="1706" as="targetPoint" />
            <Array as="points">
              <mxPoint x="1305" y="1940" />
              <mxPoint x="1305" y="1870" />
              <mxPoint x="1305" y="1803" />
            </Array>
          </mxGeometry>
        </mxCell>
        <mxCell id="3lsIib_EW8hraM5ZjS6X-105" value="문제 3" style="shape=umlFrame;whiteSpace=wrap;html=1;pointerEvents=0;" parent="1" vertex="1">
          <mxGeometry x="40" y="2410" width="770" height="960" as="geometry" />
        </mxCell>
        <mxCell id="3lsIib_EW8hraM5ZjS6X-136" value="" style="edgeStyle=orthogonalEdgeStyle;rounded=0;orthogonalLoop=1;jettySize=auto;html=1;" parent="1" source="3lsIib_EW8hraM5ZjS6X-106" target="3lsIib_EW8hraM5ZjS6X-107" edge="1">
          <mxGeometry relative="1" as="geometry" />
        </mxCell>
        <mxCell id="3lsIib_EW8hraM5ZjS6X-106" value="시작" style="strokeWidth=2;html=1;shape=mxgraph.flowchart.terminator;whiteSpace=wrap;" parent="1" vertex="1">
          <mxGeometry x="160" y="2470" width="100" height="60" as="geometry" />
        </mxCell>
        <mxCell id="3lsIib_EW8hraM5ZjS6X-137" value="" style="edgeStyle=orthogonalEdgeStyle;rounded=0;orthogonalLoop=1;jettySize=auto;html=1;" parent="1" source="3lsIib_EW8hraM5ZjS6X-107" target="3lsIib_EW8hraM5ZjS6X-108" edge="1">
          <mxGeometry relative="1" as="geometry" />
        </mxCell>
        <mxCell id="3lsIib_EW8hraM5ZjS6X-107" value="숫자 입력" style="shape=parallelogram;html=1;strokeWidth=2;perimeter=parallelogramPerimeter;whiteSpace=wrap;rounded=1;arcSize=12;size=0.23;" parent="1" vertex="1">
          <mxGeometry x="160" y="2590" width="100" height="60" as="geometry" />
        </mxCell>
        <mxCell id="3lsIib_EW8hraM5ZjS6X-110" value="" style="edgeStyle=orthogonalEdgeStyle;rounded=0;orthogonalLoop=1;jettySize=auto;html=1;" parent="1" source="3lsIib_EW8hraM5ZjS6X-108" target="3lsIib_EW8hraM5ZjS6X-109" edge="1">
          <mxGeometry relative="1" as="geometry" />
        </mxCell>
        <mxCell id="3lsIib_EW8hraM5ZjS6X-130" style="edgeStyle=orthogonalEdgeStyle;rounded=0;orthogonalLoop=1;jettySize=auto;html=1;" parent="1" source="3lsIib_EW8hraM5ZjS6X-108" target="3lsIib_EW8hraM5ZjS6X-118" edge="1">
          <mxGeometry relative="1" as="geometry" />
        </mxCell>
        <mxCell id="3lsIib_EW8hraM5ZjS6X-108" value="integer1 &amp;gt; integer2" style="strokeWidth=2;html=1;shape=mxgraph.flowchart.decision;whiteSpace=wrap;" parent="1" vertex="1">
          <mxGeometry x="146" y="2710" width="130" height="110" as="geometry" />
        </mxCell>
        <mxCell id="3lsIib_EW8hraM5ZjS6X-112" value="" style="edgeStyle=orthogonalEdgeStyle;rounded=0;orthogonalLoop=1;jettySize=auto;html=1;" parent="1" source="3lsIib_EW8hraM5ZjS6X-109" target="3lsIib_EW8hraM5ZjS6X-111" edge="1">
          <mxGeometry relative="1" as="geometry" />
        </mxCell>
        <mxCell id="3lsIib_EW8hraM5ZjS6X-116" value="" style="edgeStyle=orthogonalEdgeStyle;rounded=0;orthogonalLoop=1;jettySize=auto;html=1;" parent="1" source="3lsIib_EW8hraM5ZjS6X-109" target="3lsIib_EW8hraM5ZjS6X-113" edge="1">
          <mxGeometry relative="1" as="geometry" />
        </mxCell>
        <mxCell id="3lsIib_EW8hraM5ZjS6X-109" value="integer1 &amp;gt; integer3" style="strokeWidth=2;html=1;shape=mxgraph.flowchart.decision;whiteSpace=wrap;" parent="1" vertex="1">
          <mxGeometry x="356" y="2710" width="130" height="110" as="geometry" />
        </mxCell>
        <mxCell id="3lsIib_EW8hraM5ZjS6X-111" value="integer1이&lt;div&gt;제일 큽니다.&lt;/div&gt;" style="strokeWidth=2;html=1;shape=mxgraph.flowchart.document2;whiteSpace=wrap;size=0.25;" parent="1" vertex="1">
          <mxGeometry x="536" y="2735" width="100" height="60" as="geometry" />
        </mxCell>
        <mxCell id="3lsIib_EW8hraM5ZjS6X-113" value="integer3이&lt;div&gt;제일 큽니다.&lt;/div&gt;" style="strokeWidth=2;html=1;shape=mxgraph.flowchart.document2;whiteSpace=wrap;size=0.25;" parent="1" vertex="1">
          <mxGeometry x="371" y="2860" width="100" height="60" as="geometry" />
        </mxCell>
        <mxCell id="3lsIib_EW8hraM5ZjS6X-114" value="YES" style="text;html=1;align=center;verticalAlign=middle;resizable=0;points=[];autosize=1;strokeColor=none;fillColor=none;" parent="1" vertex="1">
          <mxGeometry x="481" y="2708" width="50" height="30" as="geometry" />
        </mxCell>
        <mxCell id="3lsIib_EW8hraM5ZjS6X-115" value="NO" style="text;html=1;align=center;verticalAlign=middle;resizable=0;points=[];autosize=1;strokeColor=none;fillColor=none;" parent="1" vertex="1">
          <mxGeometry x="431" y="2820" width="40" height="30" as="geometry" />
        </mxCell>
        <mxCell id="3lsIib_EW8hraM5ZjS6X-117" value="YES" style="text;html=1;align=center;verticalAlign=middle;resizable=0;points=[];autosize=1;strokeColor=none;fillColor=none;" parent="1" vertex="1">
          <mxGeometry x="285" y="2718" width="50" height="30" as="geometry" />
        </mxCell>
        <mxCell id="3lsIib_EW8hraM5ZjS6X-123" value="" style="edgeStyle=orthogonalEdgeStyle;rounded=0;orthogonalLoop=1;jettySize=auto;html=1;" parent="1" source="3lsIib_EW8hraM5ZjS6X-118" target="3lsIib_EW8hraM5ZjS6X-120" edge="1">
          <mxGeometry relative="1" as="geometry" />
        </mxCell>
        <mxCell id="3lsIib_EW8hraM5ZjS6X-118" value="&lt;div&gt;else&lt;/div&gt;(integer1 &amp;lt; integer2)" style="strokeWidth=2;html=1;shape=mxgraph.flowchart.decision;whiteSpace=wrap;" parent="1" vertex="1">
          <mxGeometry x="146" y="2970" width="130" height="110" as="geometry" />
        </mxCell>
        <mxCell id="3lsIib_EW8hraM5ZjS6X-119" value="NO" style="text;html=1;align=center;verticalAlign=middle;resizable=0;points=[];autosize=1;strokeColor=none;fillColor=none;" parent="1" vertex="1">
          <mxGeometry x="221" y="2875" width="40" height="30" as="geometry" />
        </mxCell>
        <mxCell id="3lsIib_EW8hraM5ZjS6X-124" value="" style="edgeStyle=orthogonalEdgeStyle;rounded=0;orthogonalLoop=1;jettySize=auto;html=1;" parent="1" source="3lsIib_EW8hraM5ZjS6X-120" target="3lsIib_EW8hraM5ZjS6X-121" edge="1">
          <mxGeometry relative="1" as="geometry" />
        </mxCell>
        <mxCell id="3lsIib_EW8hraM5ZjS6X-126" value="" style="edgeStyle=orthogonalEdgeStyle;rounded=0;orthogonalLoop=1;jettySize=auto;html=1;" parent="1" source="3lsIib_EW8hraM5ZjS6X-120" target="3lsIib_EW8hraM5ZjS6X-122" edge="1">
          <mxGeometry relative="1" as="geometry" />
        </mxCell>
        <mxCell id="3lsIib_EW8hraM5ZjS6X-120" value="integer2 &amp;gt; integer3" style="strokeWidth=2;html=1;shape=mxgraph.flowchart.decision;whiteSpace=wrap;" parent="1" vertex="1">
          <mxGeometry x="351" y="2970" width="130" height="110" as="geometry" />
        </mxCell>
        <mxCell id="3lsIib_EW8hraM5ZjS6X-121" value="integer3이&lt;div&gt;제일 큽니다.&lt;/div&gt;" style="strokeWidth=2;html=1;shape=mxgraph.flowchart.document2;whiteSpace=wrap;size=0.25;" parent="1" vertex="1">
          <mxGeometry x="526" y="2995" width="100" height="60" as="geometry" />
        </mxCell>
        <mxCell id="3lsIib_EW8hraM5ZjS6X-122" value="integer2가&lt;div&gt;제일 큽니다.&lt;/div&gt;" style="strokeWidth=2;html=1;shape=mxgraph.flowchart.document2;whiteSpace=wrap;size=0.25;" parent="1" vertex="1">
          <mxGeometry x="366" y="3130" width="100" height="60" as="geometry" />
        </mxCell>
        <mxCell id="3lsIib_EW8hraM5ZjS6X-125" value="YES" style="text;html=1;align=center;verticalAlign=middle;resizable=0;points=[];autosize=1;strokeColor=none;fillColor=none;" parent="1" vertex="1">
          <mxGeometry x="471" y="2988" width="50" height="30" as="geometry" />
        </mxCell>
        <mxCell id="3lsIib_EW8hraM5ZjS6X-127" value="NO" style="text;html=1;align=center;verticalAlign=middle;resizable=0;points=[];autosize=1;strokeColor=none;fillColor=none;" parent="1" vertex="1">
          <mxGeometry x="417" y="3090" width="40" height="30" as="geometry" />
        </mxCell>
        <mxCell id="3lsIib_EW8hraM5ZjS6X-128" value="끝" style="strokeWidth=2;html=1;shape=mxgraph.flowchart.terminator;whiteSpace=wrap;" parent="1" vertex="1">
          <mxGeometry x="161" y="3250" width="100" height="60" as="geometry" />
        </mxCell>
        <mxCell id="3lsIib_EW8hraM5ZjS6X-131" value="" style="endArrow=none;html=1;rounded=0;entryX=0.541;entryY=0.868;entryDx=0;entryDy=0;entryPerimeter=0;exitX=1;exitY=0.5;exitDx=0;exitDy=0;exitPerimeter=0;startArrow=classic;startFill=1;" parent="1" target="3lsIib_EW8hraM5ZjS6X-122" edge="1">
          <mxGeometry width="50" height="50" relative="1" as="geometry">
            <mxPoint x="257" y="3280" as="sourcePoint" />
            <mxPoint x="417" y="3220" as="targetPoint" />
            <Array as="points">
              <mxPoint x="420" y="3280" />
            </Array>
          </mxGeometry>
        </mxCell>
        <mxCell id="3lsIib_EW8hraM5ZjS6X-132" value="" style="endArrow=none;html=1;rounded=0;entryX=0.498;entryY=0.889;entryDx=0;entryDy=0;entryPerimeter=0;exitX=1;exitY=0.5;exitDx=0;exitDy=0;exitPerimeter=0;startArrow=classic;startFill=1;" parent="1" source="3lsIib_EW8hraM5ZjS6X-128" target="3lsIib_EW8hraM5ZjS6X-121" edge="1">
          <mxGeometry width="50" height="50" relative="1" as="geometry">
            <mxPoint x="257" y="3280" as="sourcePoint" />
            <mxPoint x="577.5" y="3060" as="targetPoint" />
            <Array as="points">
              <mxPoint x="570" y="3280" />
            </Array>
          </mxGeometry>
        </mxCell>
        <mxCell id="3lsIib_EW8hraM5ZjS6X-133" value="" style="endArrow=none;html=1;rounded=0;entryX=1;entryY=0.5;entryDx=0;entryDy=0;entryPerimeter=0;" parent="1" target="3lsIib_EW8hraM5ZjS6X-113" edge="1">
          <mxGeometry width="50" height="50" relative="1" as="geometry">
            <mxPoint x="270" y="3280" as="sourcePoint" />
            <mxPoint x="440" y="2810" as="targetPoint" />
            <Array as="points">
              <mxPoint x="720" y="3280" />
              <mxPoint x="720" y="2890" />
            </Array>
          </mxGeometry>
        </mxCell>
        <mxCell id="3lsIib_EW8hraM5ZjS6X-134" value="" style="endArrow=none;html=1;rounded=0;entryX=1;entryY=0.5;entryDx=0;entryDy=0;entryPerimeter=0;exitX=1;exitY=0.5;exitDx=0;exitDy=0;exitPerimeter=0;" parent="1" source="3lsIib_EW8hraM5ZjS6X-128" target="3lsIib_EW8hraM5ZjS6X-111" edge="1">
          <mxGeometry width="50" height="50" relative="1" as="geometry">
            <mxPoint x="390" y="2860" as="sourcePoint" />
            <mxPoint x="440" y="2810" as="targetPoint" />
            <Array as="points">
              <mxPoint x="730" y="3280" />
              <mxPoint x="730" y="2765" />
            </Array>
          </mxGeometry>
        </mxCell>
        <mxCell id="3lsIib_EW8hraM5ZjS6X-138" value="YES" style="text;html=1;align=center;verticalAlign=middle;resizable=0;points=[];autosize=1;strokeColor=none;fillColor=none;" parent="1" vertex="1">
          <mxGeometry x="285" y="2988" width="50" height="30" as="geometry" />
        </mxCell>
        <mxCell id="3lsIib_EW8hraM5ZjS6X-139" value="문제 4" style="shape=umlFrame;whiteSpace=wrap;html=1;pointerEvents=0;" parent="1" vertex="1">
          <mxGeometry x="855" y="2410" width="770" height="960" as="geometry" />
        </mxCell>
        <mxCell id="3lsIib_EW8hraM5ZjS6X-146" value="" style="edgeStyle=orthogonalEdgeStyle;rounded=0;orthogonalLoop=1;jettySize=auto;html=1;" parent="1" source="3lsIib_EW8hraM5ZjS6X-140" target="3lsIib_EW8hraM5ZjS6X-141" edge="1">
          <mxGeometry relative="1" as="geometry" />
        </mxCell>
        <mxCell id="3lsIib_EW8hraM5ZjS6X-140" value="시작" style="strokeWidth=2;html=1;shape=mxgraph.flowchart.terminator;whiteSpace=wrap;" parent="1" vertex="1">
          <mxGeometry x="1190" y="2490" width="100" height="60" as="geometry" />
        </mxCell>
        <mxCell id="3lsIib_EW8hraM5ZjS6X-147" value="" style="edgeStyle=orthogonalEdgeStyle;rounded=0;orthogonalLoop=1;jettySize=auto;html=1;" parent="1" source="3lsIib_EW8hraM5ZjS6X-141" target="3lsIib_EW8hraM5ZjS6X-142" edge="1">
          <mxGeometry relative="1" as="geometry" />
        </mxCell>
        <mxCell id="3lsIib_EW8hraM5ZjS6X-141" value="숫자 입력" style="shape=parallelogram;html=1;strokeWidth=2;perimeter=parallelogramPerimeter;whiteSpace=wrap;rounded=1;arcSize=12;size=0.23;" parent="1" vertex="1">
          <mxGeometry x="1190" y="2630" width="100" height="60" as="geometry" />
        </mxCell>
        <mxCell id="3lsIib_EW8hraM5ZjS6X-148" value="" style="edgeStyle=orthogonalEdgeStyle;rounded=0;orthogonalLoop=1;jettySize=auto;html=1;" parent="1" source="3lsIib_EW8hraM5ZjS6X-142" target="3lsIib_EW8hraM5ZjS6X-143" edge="1">
          <mxGeometry relative="1" as="geometry" />
        </mxCell>
        <mxCell id="3lsIib_EW8hraM5ZjS6X-142" value="sum = itg1 + itg2 +&lt;div&gt;itg3;&lt;/div&gt;" style="rounded=1;whiteSpace=wrap;html=1;" parent="1" vertex="1">
          <mxGeometry x="1180" y="2770" width="120" height="60" as="geometry" />
        </mxCell>
        <mxCell id="3lsIib_EW8hraM5ZjS6X-149" value="" style="edgeStyle=orthogonalEdgeStyle;rounded=0;orthogonalLoop=1;jettySize=auto;html=1;" parent="1" source="3lsIib_EW8hraM5ZjS6X-143" target="3lsIib_EW8hraM5ZjS6X-144" edge="1">
          <mxGeometry relative="1" as="geometry" />
        </mxCell>
        <mxCell id="3lsIib_EW8hraM5ZjS6X-143" value="avg = sum/3" style="rounded=1;whiteSpace=wrap;html=1;" parent="1" vertex="1">
          <mxGeometry x="1180" y="2892.5" width="120" height="60" as="geometry" />
        </mxCell>
        <mxCell id="3lsIib_EW8hraM5ZjS6X-150" value="" style="edgeStyle=orthogonalEdgeStyle;rounded=0;orthogonalLoop=1;jettySize=auto;html=1;" parent="1" source="3lsIib_EW8hraM5ZjS6X-144" target="3lsIib_EW8hraM5ZjS6X-145" edge="1">
          <mxGeometry relative="1" as="geometry" />
        </mxCell>
        <mxCell id="3lsIib_EW8hraM5ZjS6X-144" value="sum, avg" style="strokeWidth=2;html=1;shape=mxgraph.flowchart.document2;whiteSpace=wrap;size=0.25;" parent="1" vertex="1">
          <mxGeometry x="1190" y="3018" width="100" height="60" as="geometry" />
        </mxCell>
        <mxCell id="3lsIib_EW8hraM5ZjS6X-145" value="끝" style="strokeWidth=2;html=1;shape=mxgraph.flowchart.terminator;whiteSpace=wrap;" parent="1" vertex="1">
          <mxGeometry x="1190" y="3140" width="100" height="60" as="geometry" />
        </mxCell>
        <mxCell id="3lsIib_EW8hraM5ZjS6X-162" value="회원가입" style="shape=umlFrame;whiteSpace=wrap;html=1;pointerEvents=0;width=100;height=30;" parent="1" vertex="1">
          <mxGeometry x="100" y="3600" width="660" height="1930" as="geometry" />
        </mxCell>
        <mxCell id="3lsIib_EW8hraM5ZjS6X-163" value="" style="edgeStyle=none;curved=1;rounded=0;orthogonalLoop=1;jettySize=auto;html=1;fontSize=12;startSize=8;endSize=8;" parent="1" source="3lsIib_EW8hraM5ZjS6X-164" target="3lsIib_EW8hraM5ZjS6X-167" edge="1">
          <mxGeometry relative="1" as="geometry" />
        </mxCell>
        <mxCell id="3lsIib_EW8hraM5ZjS6X-164" value="시작" style="strokeWidth=2;html=1;shape=mxgraph.flowchart.terminator;whiteSpace=wrap;" parent="1" vertex="1">
          <mxGeometry x="362.5" y="3630" width="100" height="60" as="geometry" />
        </mxCell>
        <mxCell id="3lsIib_EW8hraM5ZjS6X-165" value="끝" style="strokeWidth=2;html=1;shape=mxgraph.flowchart.terminator;whiteSpace=wrap;" parent="1" vertex="1">
          <mxGeometry x="375" y="5420" width="100" height="60" as="geometry" />
        </mxCell>
        <mxCell id="3lsIib_EW8hraM5ZjS6X-166" value="" style="edgeStyle=none;curved=1;rounded=0;orthogonalLoop=1;jettySize=auto;html=1;fontSize=12;startSize=8;endSize=8;" parent="1" source="3lsIib_EW8hraM5ZjS6X-167" target="3lsIib_EW8hraM5ZjS6X-169" edge="1">
          <mxGeometry relative="1" as="geometry" />
        </mxCell>
        <mxCell id="3lsIib_EW8hraM5ZjS6X-167" value="회원가입 폼" style="shape=document;whiteSpace=wrap;html=1;boundedLbl=1;strokeWidth=2;" parent="1" vertex="1">
          <mxGeometry x="355" y="3740" width="120" height="80" as="geometry" />
        </mxCell>
        <mxCell id="3lsIib_EW8hraM5ZjS6X-168" value="" style="edgeStyle=none;curved=1;rounded=0;orthogonalLoop=1;jettySize=auto;html=1;fontSize=12;startSize=8;endSize=8;" parent="1" source="3lsIib_EW8hraM5ZjS6X-169" target="3lsIib_EW8hraM5ZjS6X-171" edge="1">
          <mxGeometry relative="1" as="geometry" />
        </mxCell>
        <mxCell id="3lsIib_EW8hraM5ZjS6X-169" value="이메일 입력" style="shape=parallelogram;perimeter=parallelogramPerimeter;whiteSpace=wrap;html=1;fixedSize=1;strokeWidth=2;" parent="1" vertex="1">
          <mxGeometry x="357.5" y="3870" width="120" height="60" as="geometry" />
        </mxCell>
        <mxCell id="3lsIib_EW8hraM5ZjS6X-170" value="" style="edgeStyle=none;curved=1;rounded=0;orthogonalLoop=1;jettySize=auto;html=1;fontSize=12;startSize=8;endSize=8;" parent="1" source="3lsIib_EW8hraM5ZjS6X-171" target="3lsIib_EW8hraM5ZjS6X-173" edge="1">
          <mxGeometry relative="1" as="geometry" />
        </mxCell>
        <mxCell id="3lsIib_EW8hraM5ZjS6X-171" value="인증 버튼 클릭" style="shape=parallelogram;perimeter=parallelogramPerimeter;whiteSpace=wrap;html=1;fixedSize=1;strokeWidth=2;" parent="1" vertex="1">
          <mxGeometry x="357.5" y="3980" width="120" height="60" as="geometry" />
        </mxCell>
        <mxCell id="3lsIib_EW8hraM5ZjS6X-172" value="" style="edgeStyle=none;curved=1;rounded=0;orthogonalLoop=1;jettySize=auto;html=1;fontSize=12;startSize=8;endSize=8;" parent="1" source="3lsIib_EW8hraM5ZjS6X-173" target="3lsIib_EW8hraM5ZjS6X-174" edge="1">
          <mxGeometry relative="1" as="geometry" />
        </mxCell>
        <mxCell id="3lsIib_EW8hraM5ZjS6X-173" value="&lt;div&gt;&lt;span style=&quot;background-color: initial;&quot;&gt;DB 조회&lt;/span&gt;&lt;br&gt;&lt;/div&gt;&lt;div&gt;&lt;span style=&quot;background-color: initial;&quot;&gt;(입력된 이메일)&lt;/span&gt;&lt;/div&gt;" style="whiteSpace=wrap;html=1;strokeWidth=2;" parent="1" vertex="1">
          <mxGeometry x="357.5" y="4090" width="120" height="60" as="geometry" />
        </mxCell>
        <mxCell id="3lsIib_EW8hraM5ZjS6X-174" value="tbl_user" style="strokeWidth=2;html=1;shape=mxgraph.flowchart.database;whiteSpace=wrap;" parent="1" vertex="1">
          <mxGeometry x="550" y="4090" width="60" height="60" as="geometry" />
        </mxCell>
        <mxCell id="3lsIib_EW8hraM5ZjS6X-175" value="" style="edgeStyle=none;curved=1;rounded=0;orthogonalLoop=1;jettySize=auto;html=1;fontSize=12;startSize=8;endSize=8;" parent="1" source="3lsIib_EW8hraM5ZjS6X-176" target="3lsIib_EW8hraM5ZjS6X-185" edge="1">
          <mxGeometry relative="1" as="geometry" />
        </mxCell>
        <mxCell id="3lsIib_EW8hraM5ZjS6X-176" value="동일계정이&amp;nbsp;&lt;div&gt;존재하는지&lt;/div&gt;" style="rhombus;whiteSpace=wrap;html=1;strokeWidth=2;" parent="1" vertex="1">
          <mxGeometry x="377.5" y="4220" width="80" height="80" as="geometry" />
        </mxCell>
        <mxCell id="3lsIib_EW8hraM5ZjS6X-177" value="" style="edgeStyle=none;curved=0;rounded=0;orthogonalLoop=1;jettySize=auto;html=1;fontSize=12;startSize=8;endSize=8;exitX=0.5;exitY=1;exitDx=0;exitDy=0;exitPerimeter=0;entryX=1;entryY=0.5;entryDx=0;entryDy=0;" parent="1" source="3lsIib_EW8hraM5ZjS6X-174" target="3lsIib_EW8hraM5ZjS6X-176" edge="1">
          <mxGeometry relative="1" as="geometry">
            <mxPoint x="488" y="4130" as="sourcePoint" />
            <mxPoint x="560" y="4130" as="targetPoint" />
            <Array as="points">
              <mxPoint x="580" y="4260" />
            </Array>
          </mxGeometry>
        </mxCell>
        <mxCell id="3lsIib_EW8hraM5ZjS6X-178" value="&lt;p style=&quot;margin:0px;margin-top:4px;text-align:center;&quot;&gt;&lt;b&gt;MESSAGE&lt;/b&gt;&lt;/p&gt;&lt;hr size=&quot;1&quot; style=&quot;border-style:solid;&quot;&gt;&lt;div style=&quot;height:2px;&quot;&gt;&amp;nbsp;동일계정이 존재합니다.&lt;/div&gt;" style="verticalAlign=top;align=left;overflow=fill;html=1;whiteSpace=wrap;" parent="1" vertex="1">
          <mxGeometry x="140" y="4200" width="140" height="60" as="geometry" />
        </mxCell>
        <mxCell id="3lsIib_EW8hraM5ZjS6X-179" value="" style="edgeStyle=none;curved=0;rounded=0;orthogonalLoop=1;jettySize=auto;html=1;fontSize=12;startSize=8;endSize=8;exitX=0;exitY=0.5;exitDx=0;exitDy=0;entryX=0;entryY=0.5;entryDx=0;entryDy=0;" parent="1" source="3lsIib_EW8hraM5ZjS6X-176" target="3lsIib_EW8hraM5ZjS6X-169" edge="1">
          <mxGeometry relative="1" as="geometry">
            <mxPoint x="428" y="4050" as="sourcePoint" />
            <mxPoint x="428" y="4100" as="targetPoint" />
            <Array as="points">
              <mxPoint x="290" y="4260" />
              <mxPoint x="290" y="3900" />
            </Array>
          </mxGeometry>
        </mxCell>
        <mxCell id="3lsIib_EW8hraM5ZjS6X-180" value="YES" style="text;html=1;align=center;verticalAlign=middle;resizable=0;points=[];autosize=1;strokeColor=none;fillColor=none;fontSize=16;" parent="1" vertex="1">
          <mxGeometry x="315" y="4230" width="60" height="30" as="geometry" />
        </mxCell>
        <mxCell id="3lsIib_EW8hraM5ZjS6X-181" value="NO" style="text;html=1;align=center;verticalAlign=middle;resizable=0;points=[];autosize=1;strokeColor=none;fillColor=none;fontSize=16;" parent="1" vertex="1">
          <mxGeometry x="430" y="4291" width="50" height="30" as="geometry" />
        </mxCell>
        <mxCell id="3lsIib_EW8hraM5ZjS6X-182" value="" style="edgeStyle=none;curved=1;rounded=0;orthogonalLoop=1;jettySize=auto;html=1;fontSize=12;startSize=8;endSize=8;" parent="1" source="3lsIib_EW8hraM5ZjS6X-183" target="3lsIib_EW8hraM5ZjS6X-192" edge="1">
          <mxGeometry relative="1" as="geometry" />
        </mxCell>
        <mxCell id="3lsIib_EW8hraM5ZjS6X-183" value="인증코드가&lt;div&gt;올바른지&lt;/div&gt;" style="rhombus;whiteSpace=wrap;html=1;strokeWidth=2;" parent="1" vertex="1">
          <mxGeometry x="380" y="4580" width="80" height="80" as="geometry" />
        </mxCell>
        <mxCell id="3lsIib_EW8hraM5ZjS6X-184" value="" style="edgeStyle=none;curved=1;rounded=0;orthogonalLoop=1;jettySize=auto;html=1;fontSize=12;startSize=8;endSize=8;" parent="1" source="3lsIib_EW8hraM5ZjS6X-185" target="3lsIib_EW8hraM5ZjS6X-187" edge="1">
          <mxGeometry relative="1" as="geometry" />
        </mxCell>
        <mxCell id="3lsIib_EW8hraM5ZjS6X-185" value="이메일 인증 코드 발송&lt;div&gt;(외부 API)&lt;/div&gt;" style="whiteSpace=wrap;html=1;strokeWidth=2;" parent="1" vertex="1">
          <mxGeometry x="357.5" y="4340" width="120" height="60" as="geometry" />
        </mxCell>
        <mxCell id="3lsIib_EW8hraM5ZjS6X-186" value="" style="edgeStyle=none;curved=1;rounded=0;orthogonalLoop=1;jettySize=auto;html=1;fontSize=12;startSize=8;endSize=8;" parent="1" source="3lsIib_EW8hraM5ZjS6X-187" target="3lsIib_EW8hraM5ZjS6X-183" edge="1">
          <mxGeometry relative="1" as="geometry" />
        </mxCell>
        <mxCell id="3lsIib_EW8hraM5ZjS6X-187" value="인증코드 입력" style="shape=parallelogram;perimeter=parallelogramPerimeter;whiteSpace=wrap;html=1;fixedSize=1;strokeWidth=2;" parent="1" vertex="1">
          <mxGeometry x="357.5" y="4460" width="120" height="60" as="geometry" />
        </mxCell>
        <mxCell id="3lsIib_EW8hraM5ZjS6X-188" value="" style="edgeStyle=none;curved=0;rounded=0;orthogonalLoop=1;jettySize=auto;html=1;fontSize=12;startSize=8;endSize=8;exitX=1;exitY=0.5;exitDx=0;exitDy=0;entryX=1;entryY=0.5;entryDx=0;entryDy=0;" parent="1" source="3lsIib_EW8hraM5ZjS6X-183" target="3lsIib_EW8hraM5ZjS6X-169" edge="1">
          <mxGeometry relative="1" as="geometry">
            <mxPoint x="428" y="4530" as="sourcePoint" />
            <mxPoint x="429" y="4591" as="targetPoint" />
            <Array as="points">
              <mxPoint x="670" y="4620" />
              <mxPoint x="670" y="3900" />
            </Array>
          </mxGeometry>
        </mxCell>
        <mxCell id="3lsIib_EW8hraM5ZjS6X-189" value="NO" style="text;html=1;align=center;verticalAlign=middle;resizable=0;points=[];autosize=1;strokeColor=none;fillColor=none;fontSize=16;" parent="1" vertex="1">
          <mxGeometry x="455" y="4591" width="50" height="30" as="geometry" />
        </mxCell>
        <mxCell id="3lsIib_EW8hraM5ZjS6X-190" value="" style="edgeStyle=none;curved=1;rounded=0;orthogonalLoop=1;jettySize=auto;html=1;fontSize=12;startSize=8;endSize=8;" parent="1" source="3lsIib_EW8hraM5ZjS6X-192" target="3lsIib_EW8hraM5ZjS6X-195" edge="1">
          <mxGeometry relative="1" as="geometry" />
        </mxCell>
        <mxCell id="3lsIib_EW8hraM5ZjS6X-191" value="" style="edgeStyle=none;curved=1;rounded=0;orthogonalLoop=1;jettySize=auto;html=1;fontSize=12;startSize=8;endSize=8;" parent="1" source="3lsIib_EW8hraM5ZjS6X-192" target="3lsIib_EW8hraM5ZjS6X-195" edge="1">
          <mxGeometry relative="1" as="geometry" />
        </mxCell>
        <mxCell id="3lsIib_EW8hraM5ZjS6X-192" value="나머지 개인정보&amp;nbsp;&lt;div&gt;입력&lt;/div&gt;" style="shape=parallelogram;perimeter=parallelogramPerimeter;whiteSpace=wrap;html=1;fixedSize=1;strokeWidth=2;" parent="1" vertex="1">
          <mxGeometry x="360" y="4730" width="120" height="60" as="geometry" />
        </mxCell>
        <mxCell id="3lsIib_EW8hraM5ZjS6X-193" value="YES" style="text;html=1;align=center;verticalAlign=middle;resizable=0;points=[];autosize=1;strokeColor=none;fillColor=none;fontSize=16;" parent="1" vertex="1">
          <mxGeometry x="420" y="4660" width="60" height="30" as="geometry" />
        </mxCell>
        <mxCell id="3lsIib_EW8hraM5ZjS6X-194" value="" style="edgeStyle=none;curved=1;rounded=0;orthogonalLoop=1;jettySize=auto;html=1;fontSize=12;startSize=8;endSize=8;" parent="1" source="3lsIib_EW8hraM5ZjS6X-195" target="3lsIib_EW8hraM5ZjS6X-197" edge="1">
          <mxGeometry relative="1" as="geometry" />
        </mxCell>
        <mxCell id="3lsIib_EW8hraM5ZjS6X-195" value="유효성 검사" style="whiteSpace=wrap;html=1;strokeWidth=2;" parent="1" vertex="1">
          <mxGeometry x="360" y="4840" width="120" height="60" as="geometry" />
        </mxCell>
        <mxCell id="3lsIib_EW8hraM5ZjS6X-196" value="" style="edgeStyle=none;curved=1;rounded=0;orthogonalLoop=1;jettySize=auto;html=1;fontSize=12;startSize=8;endSize=8;" parent="1" source="3lsIib_EW8hraM5ZjS6X-197" target="3lsIib_EW8hraM5ZjS6X-201" edge="1">
          <mxGeometry relative="1" as="geometry" />
        </mxCell>
        <mxCell id="3lsIib_EW8hraM5ZjS6X-197" value="입력된&lt;div&gt;데이터가&lt;/div&gt;&lt;div&gt;올바른가&lt;/div&gt;" style="rhombus;whiteSpace=wrap;html=1;strokeWidth=2;" parent="1" vertex="1">
          <mxGeometry x="380" y="4950" width="80" height="80" as="geometry" />
        </mxCell>
        <mxCell id="3lsIib_EW8hraM5ZjS6X-198" value="" style="edgeStyle=none;curved=0;rounded=0;orthogonalLoop=1;jettySize=auto;html=1;fontSize=12;startSize=8;endSize=8;exitX=0;exitY=0.5;exitDx=0;exitDy=0;entryX=0;entryY=0.25;entryDx=0;entryDy=0;" parent="1" source="3lsIib_EW8hraM5ZjS6X-197" target="3lsIib_EW8hraM5ZjS6X-192" edge="1">
          <mxGeometry relative="1" as="geometry">
            <mxPoint x="430" y="4910" as="sourcePoint" />
            <mxPoint x="430" y="4960" as="targetPoint" />
            <Array as="points">
              <mxPoint x="280" y="4990" />
              <mxPoint x="280" y="4748" />
            </Array>
          </mxGeometry>
        </mxCell>
        <mxCell id="3lsIib_EW8hraM5ZjS6X-199" value="NO" style="text;html=1;align=center;verticalAlign=middle;resizable=0;points=[];autosize=1;strokeColor=none;fillColor=none;fontSize=16;" parent="1" vertex="1">
          <mxGeometry x="327.5" y="4951" width="50" height="30" as="geometry" />
        </mxCell>
        <mxCell id="3lsIib_EW8hraM5ZjS6X-200" value="" style="edgeStyle=none;curved=1;rounded=0;orthogonalLoop=1;jettySize=auto;html=1;fontSize=12;startSize=8;endSize=8;" parent="1" source="3lsIib_EW8hraM5ZjS6X-201" target="3lsIib_EW8hraM5ZjS6X-202" edge="1">
          <mxGeometry relative="1" as="geometry" />
        </mxCell>
        <mxCell id="3lsIib_EW8hraM5ZjS6X-201" value="DB 회원정보 저장" style="whiteSpace=wrap;html=1;strokeWidth=2;" parent="1" vertex="1">
          <mxGeometry x="360" y="5080" width="120" height="60" as="geometry" />
        </mxCell>
        <mxCell id="3lsIib_EW8hraM5ZjS6X-202" value="tbl_user" style="strokeWidth=2;html=1;shape=mxgraph.flowchart.database;whiteSpace=wrap;" parent="1" vertex="1">
          <mxGeometry x="560" y="5080" width="60" height="60" as="geometry" />
        </mxCell>
        <mxCell id="3lsIib_EW8hraM5ZjS6X-203" value="" style="edgeStyle=none;curved=1;rounded=0;orthogonalLoop=1;jettySize=auto;html=1;fontSize=12;startSize=8;endSize=8;" parent="1" source="3lsIib_EW8hraM5ZjS6X-204" target="3lsIib_EW8hraM5ZjS6X-165" edge="1">
          <mxGeometry relative="1" as="geometry" />
        </mxCell>
        <mxCell id="3lsIib_EW8hraM5ZjS6X-204" value="로그인 페이지로 전환" style="whiteSpace=wrap;html=1;strokeWidth=2;" parent="1" vertex="1">
          <mxGeometry x="364" y="5283" width="120" height="60" as="geometry" />
        </mxCell>
        <mxCell id="3lsIib_EW8hraM5ZjS6X-205" value="" style="edgeStyle=none;curved=0;rounded=0;orthogonalLoop=1;jettySize=auto;html=1;fontSize=12;startSize=8;endSize=8;exitX=0.5;exitY=1;exitDx=0;exitDy=0;exitPerimeter=0;entryX=1;entryY=0.5;entryDx=0;entryDy=0;" parent="1" source="3lsIib_EW8hraM5ZjS6X-202" target="3lsIib_EW8hraM5ZjS6X-204" edge="1">
          <mxGeometry relative="1" as="geometry">
            <mxPoint x="430" y="5040" as="sourcePoint" />
            <mxPoint x="430" y="5090" as="targetPoint" />
            <Array as="points">
              <mxPoint x="592" y="5314" />
            </Array>
          </mxGeometry>
        </mxCell>
        <mxCell id="3lsIib_EW8hraM5ZjS6X-206" value="&lt;p style=&quot;margin:0px;margin-top:4px;text-align:center;&quot;&gt;&lt;b&gt;MESSAGE&lt;/b&gt;&lt;/p&gt;&lt;hr size=&quot;1&quot; style=&quot;border-style:solid;&quot;&gt;&lt;div style=&quot;height:2px;&quot;&gt;회원가입을 완료했습니다&lt;/div&gt;" style="verticalAlign=top;align=left;overflow=fill;html=1;whiteSpace=wrap;" parent="1" vertex="1">
          <mxGeometry x="600" y="5240" width="140" height="60" as="geometry" />
        </mxCell>
        <mxCell id="3lsIib_EW8hraM5ZjS6X-207" value="&lt;p style=&quot;margin:0px;margin-top:4px;text-align:center;&quot;&gt;&lt;b&gt;MESSAGE&lt;/b&gt;&lt;/p&gt;&lt;hr size=&quot;1&quot; style=&quot;border-style:solid;&quot;&gt;&lt;div style=&quot;height:2px;&quot;&gt;&amp;nbsp;PW 의 복잡도 여부 등등&lt;/div&gt;&lt;div style=&quot;height:2px;&quot;&gt;&lt;br&gt;&lt;/div&gt;" style="verticalAlign=top;align=left;overflow=fill;html=1;whiteSpace=wrap;" parent="1" vertex="1">
          <mxGeometry x="130" y="4910" width="140" height="60" as="geometry" />
        </mxCell>
        <mxCell id="3lsIib_EW8hraM5ZjS6X-208" value="05 기본" style="shape=umlFrame;whiteSpace=wrap;html=1;pointerEvents=0;width=100;height=30;" parent="1" vertex="1">
          <mxGeometry x="920" y="3550" width="660" height="1270" as="geometry" />
        </mxCell>
        <mxCell id="3lsIib_EW8hraM5ZjS6X-211" value="" style="edgeStyle=orthogonalEdgeStyle;rounded=0;orthogonalLoop=1;jettySize=auto;html=1;" parent="1" source="3lsIib_EW8hraM5ZjS6X-209" target="3lsIib_EW8hraM5ZjS6X-210" edge="1">
          <mxGeometry relative="1" as="geometry" />
        </mxCell>
        <mxCell id="3lsIib_EW8hraM5ZjS6X-209" value="시작" style="strokeWidth=2;html=1;shape=mxgraph.flowchart.terminator;whiteSpace=wrap;" parent="1" vertex="1">
          <mxGeometry x="1220" y="3630" width="100" height="60" as="geometry" />
        </mxCell>
        <mxCell id="3lsIib_EW8hraM5ZjS6X-221" value="" style="edgeStyle=orthogonalEdgeStyle;rounded=0;orthogonalLoop=1;jettySize=auto;html=1;" parent="1" source="3lsIib_EW8hraM5ZjS6X-210" target="3lsIib_EW8hraM5ZjS6X-213" edge="1">
          <mxGeometry relative="1" as="geometry" />
        </mxCell>
        <mxCell id="3lsIib_EW8hraM5ZjS6X-210" value="n 입력&lt;div&gt;m 입력&lt;/div&gt;" style="shape=parallelogram;html=1;strokeWidth=2;perimeter=parallelogramPerimeter;whiteSpace=wrap;rounded=1;arcSize=12;size=0.23;" parent="1" vertex="1">
          <mxGeometry x="1220" y="3760" width="100" height="60" as="geometry" />
        </mxCell>
        <mxCell id="3lsIib_EW8hraM5ZjS6X-227" value="" style="edgeStyle=orthogonalEdgeStyle;rounded=0;orthogonalLoop=1;jettySize=auto;html=1;" parent="1" source="3lsIib_EW8hraM5ZjS6X-213" target="3lsIib_EW8hraM5ZjS6X-225" edge="1">
          <mxGeometry relative="1" as="geometry" />
        </mxCell>
        <mxCell id="3lsIib_EW8hraM5ZjS6X-213" value="n &amp;gt;= m" style="strokeWidth=2;html=1;shape=mxgraph.flowchart.decision;whiteSpace=wrap;" parent="1" vertex="1">
          <mxGeometry x="1205" y="3890" width="130" height="110" as="geometry" />
        </mxCell>
        <mxCell id="3lsIib_EW8hraM5ZjS6X-214" value="반복문" style="rounded=0;whiteSpace=wrap;html=1;" parent="1" vertex="1">
          <mxGeometry x="1211" y="4502" width="120" height="60" as="geometry" />
        </mxCell>
        <mxCell id="3lsIib_EW8hraM5ZjS6X-223" value="" style="edgeStyle=orthogonalEdgeStyle;rounded=0;orthogonalLoop=1;jettySize=auto;html=1;" parent="1" source="3lsIib_EW8hraM5ZjS6X-215" target="3lsIib_EW8hraM5ZjS6X-214" edge="1">
          <mxGeometry relative="1" as="geometry" />
        </mxCell>
        <mxCell id="3lsIib_EW8hraM5ZjS6X-215" value="i &amp;lt;= n" style="strokeWidth=2;html=1;shape=mxgraph.flowchart.decision;whiteSpace=wrap;" parent="1" vertex="1">
          <mxGeometry x="1206" y="4321" width="130" height="110" as="geometry" />
        </mxCell>
        <mxCell id="3lsIib_EW8hraM5ZjS6X-216" value="" style="endArrow=block;html=1;rounded=0;exitX=0;exitY=0.5;exitDx=0;exitDy=0;entryX=0;entryY=0.5;entryDx=0;entryDy=0;entryPerimeter=0;startArrow=none;startFill=0;endFill=1;" parent="1" source="3lsIib_EW8hraM5ZjS6X-214" target="3lsIib_EW8hraM5ZjS6X-215" edge="1">
          <mxGeometry width="50" height="50" relative="1" as="geometry">
            <mxPoint x="1206" y="4391" as="sourcePoint" />
            <mxPoint x="1256" y="4341" as="targetPoint" />
            <Array as="points">
              <mxPoint x="1086" y="4532" />
              <mxPoint x="1086" y="4376" />
            </Array>
          </mxGeometry>
        </mxCell>
        <mxCell id="3lsIib_EW8hraM5ZjS6X-217" value="YES" style="text;html=1;align=center;verticalAlign=middle;resizable=0;points=[];autosize=1;strokeColor=none;fillColor=none;" parent="1" vertex="1">
          <mxGeometry x="1121" y="4389" width="50" height="30" as="geometry" />
        </mxCell>
        <mxCell id="3lsIib_EW8hraM5ZjS6X-218" value="sum 출력" style="strokeWidth=2;html=1;shape=mxgraph.flowchart.document2;whiteSpace=wrap;size=0.25;" parent="1" vertex="1">
          <mxGeometry x="1216" y="4651" width="100" height="60" as="geometry" />
        </mxCell>
        <mxCell id="3lsIib_EW8hraM5ZjS6X-219" value="" style="endArrow=block;html=1;rounded=0;exitX=1;exitY=0.5;exitDx=0;exitDy=0;exitPerimeter=0;entryX=1.024;entryY=0.377;entryDx=0;entryDy=0;entryPerimeter=0;endFill=1;" parent="1" source="3lsIib_EW8hraM5ZjS6X-215" target="3lsIib_EW8hraM5ZjS6X-218" edge="1">
          <mxGeometry width="50" height="50" relative="1" as="geometry">
            <mxPoint x="1196" y="4571" as="sourcePoint" />
            <mxPoint x="1246" y="4521" as="targetPoint" />
            <Array as="points">
              <mxPoint x="1466" y="4376" />
              <mxPoint x="1466" y="4674" />
            </Array>
          </mxGeometry>
        </mxCell>
        <mxCell id="3lsIib_EW8hraM5ZjS6X-220" value="NO" style="text;html=1;align=center;verticalAlign=middle;resizable=0;points=[];autosize=1;strokeColor=none;fillColor=none;" parent="1" vertex="1">
          <mxGeometry x="1386" y="4340" width="40" height="30" as="geometry" />
        </mxCell>
        <mxCell id="3lsIib_EW8hraM5ZjS6X-224" value="YES" style="text;html=1;align=center;verticalAlign=middle;resizable=0;points=[];autosize=1;strokeColor=none;fillColor=none;" parent="1" vertex="1">
          <mxGeometry x="1271" y="4451" width="50" height="30" as="geometry" />
        </mxCell>
        <mxCell id="3lsIib_EW8hraM5ZjS6X-228" value="" style="edgeStyle=orthogonalEdgeStyle;rounded=0;orthogonalLoop=1;jettySize=auto;html=1;" parent="1" source="3lsIib_EW8hraM5ZjS6X-225" target="3lsIib_EW8hraM5ZjS6X-226" edge="1">
          <mxGeometry relative="1" as="geometry" />
        </mxCell>
        <mxCell id="3lsIib_EW8hraM5ZjS6X-225" value="tmp = n;&lt;div&gt;n = m;&lt;/div&gt;&lt;div&gt;m = tmp;&lt;/div&gt;" style="shape=parallelogram;html=1;strokeWidth=2;perimeter=parallelogramPerimeter;whiteSpace=wrap;rounded=1;arcSize=12;size=0.23;" parent="1" vertex="1">
          <mxGeometry x="1220" y="4055" width="100" height="60" as="geometry" />
        </mxCell>
        <mxCell id="3lsIib_EW8hraM5ZjS6X-229" value="" style="edgeStyle=orthogonalEdgeStyle;rounded=0;orthogonalLoop=1;jettySize=auto;html=1;" parent="1" source="3lsIib_EW8hraM5ZjS6X-226" target="3lsIib_EW8hraM5ZjS6X-215" edge="1">
          <mxGeometry relative="1" as="geometry" />
        </mxCell>
        <mxCell id="3lsIib_EW8hraM5ZjS6X-226" value="i = n;&lt;div&gt;sum = 0;&lt;/div&gt;" style="shape=parallelogram;html=1;strokeWidth=2;perimeter=parallelogramPerimeter;whiteSpace=wrap;rounded=1;arcSize=12;size=0.23;" parent="1" vertex="1">
          <mxGeometry x="1220" y="4190" width="100" height="60" as="geometry" />
        </mxCell>
        <mxCell id="3lsIib_EW8hraM5ZjS6X-230" value="YES" style="text;html=1;align=center;verticalAlign=middle;resizable=0;points=[];autosize=1;strokeColor=none;fillColor=none;" parent="1" vertex="1">
          <mxGeometry x="1275" y="4008" width="50" height="30" as="geometry" />
        </mxCell>
        <mxCell id="3lsIib_EW8hraM5ZjS6X-231" value="" style="endArrow=none;html=1;rounded=0;entryX=0;entryY=0.5;entryDx=0;entryDy=0;entryPerimeter=0;exitX=0;exitY=0.5;exitDx=0;exitDy=0;endFill=1;startFill=1;startArrow=block;" parent="1" source="3lsIib_EW8hraM5ZjS6X-226" target="3lsIib_EW8hraM5ZjS6X-213" edge="1">
          <mxGeometry width="50" height="50" relative="1" as="geometry">
            <mxPoint x="1140" y="4008" as="sourcePoint" />
            <mxPoint x="1190" y="3958" as="targetPoint" />
            <Array as="points">
              <mxPoint x="1090" y="4220" />
              <mxPoint x="1090" y="3945" />
            </Array>
          </mxGeometry>
        </mxCell>
        <mxCell id="3lsIib_EW8hraM5ZjS6X-232" value="NO" style="text;html=1;align=center;verticalAlign=middle;resizable=0;points=[];autosize=1;strokeColor=none;fillColor=none;" parent="1" vertex="1">
          <mxGeometry x="1100" y="3958" width="40" height="30" as="geometry" />
        </mxCell>
        <mxCell id="r9nbk0LdOQmlGf_u9DRD-1" value="frame" style="shape=umlFrame;whiteSpace=wrap;html=1;pointerEvents=0;" vertex="1" parent="1">
          <mxGeometry x="945" y="4930" width="642" height="1820" as="geometry" />
        </mxCell>
        <mxCell id="r9nbk0LdOQmlGf_u9DRD-2" value="" style="edgeStyle=none;curved=1;rounded=0;orthogonalLoop=1;jettySize=auto;html=1;fontSize=12;startSize=8;endSize=8;" edge="1" parent="1" source="r9nbk0LdOQmlGf_u9DRD-3" target="r9nbk0LdOQmlGf_u9DRD-6">
          <mxGeometry relative="1" as="geometry" />
        </mxCell>
        <mxCell id="r9nbk0LdOQmlGf_u9DRD-3" value="시작" style="strokeWidth=2;html=1;shape=mxgraph.flowchart.terminator;whiteSpace=wrap;" vertex="1" parent="1">
          <mxGeometry x="1213" y="4961" width="100" height="60" as="geometry" />
        </mxCell>
        <mxCell id="r9nbk0LdOQmlGf_u9DRD-4" value="종료" style="strokeWidth=2;html=1;shape=mxgraph.flowchart.terminator;whiteSpace=wrap;" vertex="1" parent="1">
          <mxGeometry x="1213" y="6643" width="100" height="60" as="geometry" />
        </mxCell>
        <mxCell id="r9nbk0LdOQmlGf_u9DRD-5" value="" style="edgeStyle=none;curved=1;rounded=0;orthogonalLoop=1;jettySize=auto;html=1;fontSize=12;startSize=8;endSize=8;" edge="1" parent="1" source="r9nbk0LdOQmlGf_u9DRD-6" target="r9nbk0LdOQmlGf_u9DRD-9">
          <mxGeometry relative="1" as="geometry" />
        </mxCell>
        <mxCell id="r9nbk0LdOQmlGf_u9DRD-6" value="i = 0" style="whiteSpace=wrap;html=1;strokeWidth=2;" vertex="1" parent="1">
          <mxGeometry x="1203" y="5071" width="120" height="60" as="geometry" />
        </mxCell>
        <mxCell id="r9nbk0LdOQmlGf_u9DRD-7" value="" style="edgeStyle=none;curved=1;rounded=0;orthogonalLoop=1;jettySize=auto;html=1;fontSize=12;startSize=8;endSize=8;" edge="1" parent="1" source="r9nbk0LdOQmlGf_u9DRD-9" target="r9nbk0LdOQmlGf_u9DRD-11">
          <mxGeometry relative="1" as="geometry" />
        </mxCell>
        <mxCell id="r9nbk0LdOQmlGf_u9DRD-8" value="" style="edgeStyle=none;curved=1;rounded=0;orthogonalLoop=1;jettySize=auto;html=1;fontSize=12;startSize=8;endSize=8;" edge="1" parent="1" source="r9nbk0LdOQmlGf_u9DRD-9" target="r9nbk0LdOQmlGf_u9DRD-11">
          <mxGeometry relative="1" as="geometry" />
        </mxCell>
        <mxCell id="r9nbk0LdOQmlGf_u9DRD-9" value="i &amp;lt; 4" style="rhombus;whiteSpace=wrap;html=1;strokeWidth=2;" vertex="1" parent="1">
          <mxGeometry x="1223" y="5180" width="80" height="80" as="geometry" />
        </mxCell>
        <mxCell id="r9nbk0LdOQmlGf_u9DRD-10" value="" style="edgeStyle=none;curved=1;rounded=0;orthogonalLoop=1;jettySize=auto;html=1;fontSize=12;startSize=8;endSize=8;" edge="1" parent="1" source="r9nbk0LdOQmlGf_u9DRD-11" target="r9nbk0LdOQmlGf_u9DRD-14">
          <mxGeometry relative="1" as="geometry" />
        </mxCell>
        <mxCell id="r9nbk0LdOQmlGf_u9DRD-11" value="j = 0" style="whiteSpace=wrap;html=1;strokeWidth=2;" vertex="1" parent="1">
          <mxGeometry x="1203" y="5322" width="120" height="60" as="geometry" />
        </mxCell>
        <mxCell id="r9nbk0LdOQmlGf_u9DRD-12" value="YES" style="text;html=1;align=center;verticalAlign=middle;resizable=0;points=[];autosize=1;strokeColor=none;fillColor=none;fontSize=16;" vertex="1" parent="1">
          <mxGeometry x="1267" y="5263" width="50" height="31" as="geometry" />
        </mxCell>
        <mxCell id="r9nbk0LdOQmlGf_u9DRD-13" value="" style="edgeStyle=none;curved=1;rounded=0;orthogonalLoop=1;jettySize=auto;html=1;fontSize=12;startSize=8;endSize=8;" edge="1" parent="1" source="r9nbk0LdOQmlGf_u9DRD-14" target="r9nbk0LdOQmlGf_u9DRD-16">
          <mxGeometry relative="1" as="geometry" />
        </mxCell>
        <mxCell id="r9nbk0LdOQmlGf_u9DRD-14" value="j &amp;lt; 3-i" style="rhombus;whiteSpace=wrap;html=1;strokeWidth=2;" vertex="1" parent="1">
          <mxGeometry x="1223" y="5437" width="80" height="80" as="geometry" />
        </mxCell>
        <mxCell id="r9nbk0LdOQmlGf_u9DRD-15" value="" style="edgeStyle=none;curved=1;rounded=0;orthogonalLoop=1;jettySize=auto;html=1;fontSize=12;startSize=8;endSize=8;" edge="1" parent="1" source="r9nbk0LdOQmlGf_u9DRD-16" target="r9nbk0LdOQmlGf_u9DRD-18">
          <mxGeometry relative="1" as="geometry" />
        </mxCell>
        <mxCell id="r9nbk0LdOQmlGf_u9DRD-16" value="&quot; &quot; 출력" style="shape=parallelogram;perimeter=parallelogramPerimeter;whiteSpace=wrap;html=1;fixedSize=1;strokeWidth=2;" vertex="1" parent="1">
          <mxGeometry x="1203" y="5564" width="120" height="60" as="geometry" />
        </mxCell>
        <mxCell id="r9nbk0LdOQmlGf_u9DRD-17" value="YES" style="text;html=1;align=center;verticalAlign=middle;resizable=0;points=[];autosize=1;strokeColor=none;fillColor=none;fontSize=16;" vertex="1" parent="1">
          <mxGeometry x="1263" y="5511" width="50" height="31" as="geometry" />
        </mxCell>
        <mxCell id="r9nbk0LdOQmlGf_u9DRD-18" value="j++" style="whiteSpace=wrap;html=1;strokeWidth=2;" vertex="1" parent="1">
          <mxGeometry x="1203" y="5691" width="120" height="60" as="geometry" />
        </mxCell>
        <mxCell id="r9nbk0LdOQmlGf_u9DRD-19" value="" style="edgeStyle=none;curved=1;rounded=0;orthogonalLoop=1;jettySize=auto;html=1;fontSize=12;startSize=8;endSize=8;" edge="1" parent="1" source="r9nbk0LdOQmlGf_u9DRD-20" target="r9nbk0LdOQmlGf_u9DRD-25">
          <mxGeometry relative="1" as="geometry" />
        </mxCell>
        <mxCell id="r9nbk0LdOQmlGf_u9DRD-20" value="k = 0&amp;nbsp;" style="whiteSpace=wrap;html=1;strokeWidth=2;" vertex="1" parent="1">
          <mxGeometry x="1203" y="5814" width="120" height="60" as="geometry" />
        </mxCell>
        <mxCell id="r9nbk0LdOQmlGf_u9DRD-21" value="" style="edgeStyle=none;curved=0;rounded=0;orthogonalLoop=1;jettySize=auto;html=1;fontSize=12;startSize=8;endSize=8;exitX=1;exitY=0.5;exitDx=0;exitDy=0;entryX=1;entryY=0.5;entryDx=0;entryDy=0;" edge="1" parent="1" source="r9nbk0LdOQmlGf_u9DRD-18" target="r9nbk0LdOQmlGf_u9DRD-14">
          <mxGeometry relative="1" as="geometry">
            <mxPoint x="1273" y="5392" as="sourcePoint" />
            <mxPoint x="1273" y="5447" as="targetPoint" />
            <Array as="points">
              <mxPoint x="1426" y="5723" />
              <mxPoint x="1424" y="5479" />
            </Array>
          </mxGeometry>
        </mxCell>
        <mxCell id="r9nbk0LdOQmlGf_u9DRD-22" value="" style="edgeStyle=none;curved=0;rounded=0;orthogonalLoop=1;jettySize=auto;html=1;fontSize=12;startSize=8;endSize=8;exitX=0;exitY=0.5;exitDx=0;exitDy=0;" edge="1" parent="1" source="r9nbk0LdOQmlGf_u9DRD-14">
          <mxGeometry relative="1" as="geometry">
            <mxPoint x="1273" y="5634" as="sourcePoint" />
            <mxPoint x="1200" y="5844" as="targetPoint" />
            <Array as="points">
              <mxPoint x="1104" y="5477" />
              <mxPoint x="1110" y="5844" />
            </Array>
          </mxGeometry>
        </mxCell>
        <mxCell id="r9nbk0LdOQmlGf_u9DRD-23" value="NO" style="text;html=1;align=center;verticalAlign=middle;resizable=0;points=[];autosize=1;strokeColor=none;fillColor=none;fontSize=16;" vertex="1" parent="1">
          <mxGeometry x="1184.5" y="5445.5" width="42" height="31" as="geometry" />
        </mxCell>
        <mxCell id="r9nbk0LdOQmlGf_u9DRD-24" value="" style="edgeStyle=none;curved=1;rounded=0;orthogonalLoop=1;jettySize=auto;html=1;fontSize=12;startSize=8;endSize=8;" edge="1" parent="1" source="r9nbk0LdOQmlGf_u9DRD-25" target="r9nbk0LdOQmlGf_u9DRD-27">
          <mxGeometry relative="1" as="geometry" />
        </mxCell>
        <mxCell id="r9nbk0LdOQmlGf_u9DRD-25" value="k&amp;lt;=2*i" style="rhombus;whiteSpace=wrap;html=1;strokeWidth=2;" vertex="1" parent="1">
          <mxGeometry x="1223" y="5924" width="80" height="80" as="geometry" />
        </mxCell>
        <mxCell id="r9nbk0LdOQmlGf_u9DRD-26" value="" style="edgeStyle=none;curved=1;rounded=0;orthogonalLoop=1;jettySize=auto;html=1;fontSize=12;startSize=8;endSize=8;" edge="1" parent="1" source="r9nbk0LdOQmlGf_u9DRD-27" target="r9nbk0LdOQmlGf_u9DRD-28">
          <mxGeometry relative="1" as="geometry" />
        </mxCell>
        <mxCell id="r9nbk0LdOQmlGf_u9DRD-27" value="&quot;*&quot; 출력" style="shape=parallelogram;perimeter=parallelogramPerimeter;whiteSpace=wrap;html=1;fixedSize=1;strokeWidth=2;" vertex="1" parent="1">
          <mxGeometry x="1203" y="6051" width="120" height="60" as="geometry" />
        </mxCell>
        <mxCell id="r9nbk0LdOQmlGf_u9DRD-28" value="k++" style="whiteSpace=wrap;html=1;strokeWidth=2;" vertex="1" parent="1">
          <mxGeometry x="1203" y="6179" width="120" height="60" as="geometry" />
        </mxCell>
        <mxCell id="r9nbk0LdOQmlGf_u9DRD-29" value="" style="edgeStyle=none;curved=0;rounded=0;orthogonalLoop=1;jettySize=auto;html=1;fontSize=12;startSize=8;endSize=8;exitX=1;exitY=0.5;exitDx=0;exitDy=0;entryX=1;entryY=0.5;entryDx=0;entryDy=0;" edge="1" parent="1" source="r9nbk0LdOQmlGf_u9DRD-28" target="r9nbk0LdOQmlGf_u9DRD-25">
          <mxGeometry relative="1" as="geometry">
            <mxPoint x="1273" y="6121" as="sourcePoint" />
            <mxPoint x="1273" y="6189" as="targetPoint" />
            <Array as="points">
              <mxPoint x="1427" y="6209" />
              <mxPoint x="1423" y="5964" />
            </Array>
          </mxGeometry>
        </mxCell>
        <mxCell id="r9nbk0LdOQmlGf_u9DRD-30" value="YES" style="text;html=1;align=center;verticalAlign=middle;resizable=0;points=[];autosize=1;strokeColor=none;fillColor=none;fontSize=16;" vertex="1" parent="1">
          <mxGeometry x="1263" y="5996.5" width="50" height="31" as="geometry" />
        </mxCell>
        <mxCell id="r9nbk0LdOQmlGf_u9DRD-31" value="" style="edgeStyle=none;curved=1;rounded=0;orthogonalLoop=1;jettySize=auto;html=1;fontSize=12;startSize=8;endSize=8;" edge="1" parent="1" source="r9nbk0LdOQmlGf_u9DRD-32" target="r9nbk0LdOQmlGf_u9DRD-33">
          <mxGeometry relative="1" as="geometry" />
        </mxCell>
        <mxCell id="r9nbk0LdOQmlGf_u9DRD-32" value="개행문자출력" style="shape=parallelogram;perimeter=parallelogramPerimeter;whiteSpace=wrap;html=1;fixedSize=1;strokeWidth=2;" vertex="1" parent="1">
          <mxGeometry x="1203" y="6327" width="120" height="60" as="geometry" />
        </mxCell>
        <mxCell id="r9nbk0LdOQmlGf_u9DRD-33" value="i++" style="whiteSpace=wrap;html=1;strokeWidth=2;" vertex="1" parent="1">
          <mxGeometry x="1203" y="6442" width="120" height="60" as="geometry" />
        </mxCell>
        <mxCell id="r9nbk0LdOQmlGf_u9DRD-34" value="" style="edgeStyle=none;curved=0;rounded=0;orthogonalLoop=1;jettySize=auto;html=1;fontSize=12;startSize=8;endSize=8;exitX=0;exitY=0.5;exitDx=0;exitDy=0;entryX=0;entryY=0.5;entryDx=0;entryDy=0;" edge="1" parent="1" source="r9nbk0LdOQmlGf_u9DRD-25" target="r9nbk0LdOQmlGf_u9DRD-32">
          <mxGeometry relative="1" as="geometry">
            <mxPoint x="1273" y="6121" as="sourcePoint" />
            <mxPoint x="1273" y="6189" as="targetPoint" />
            <Array as="points">
              <mxPoint x="1097" y="5964" />
              <mxPoint x="1102" y="6357" />
            </Array>
          </mxGeometry>
        </mxCell>
        <mxCell id="r9nbk0LdOQmlGf_u9DRD-35" value="NO" style="text;html=1;align=center;verticalAlign=middle;resizable=0;points=[];autosize=1;strokeColor=none;fillColor=none;fontSize=16;" vertex="1" parent="1">
          <mxGeometry x="1188" y="5934" width="42" height="31" as="geometry" />
        </mxCell>
        <mxCell id="r9nbk0LdOQmlGf_u9DRD-36" value="" style="edgeStyle=none;curved=0;rounded=0;orthogonalLoop=1;jettySize=auto;html=1;fontSize=12;startSize=8;endSize=8;exitX=1;exitY=0.5;exitDx=0;exitDy=0;entryX=1;entryY=0.5;entryDx=0;entryDy=0;" edge="1" parent="1" source="r9nbk0LdOQmlGf_u9DRD-33" target="r9nbk0LdOQmlGf_u9DRD-9">
          <mxGeometry relative="1" as="geometry">
            <mxPoint x="1273" y="6397" as="sourcePoint" />
            <mxPoint x="1273" y="6452" as="targetPoint" />
            <Array as="points">
              <mxPoint x="1538" y="6472" />
              <mxPoint x="1520" y="5220" />
            </Array>
          </mxGeometry>
        </mxCell>
        <mxCell id="r9nbk0LdOQmlGf_u9DRD-37" value="" style="edgeStyle=none;curved=0;rounded=0;orthogonalLoop=1;jettySize=auto;html=1;fontSize=12;startSize=8;endSize=8;exitX=0;exitY=0.5;exitDx=0;exitDy=0;" edge="1" parent="1" source="r9nbk0LdOQmlGf_u9DRD-9" target="r9nbk0LdOQmlGf_u9DRD-4">
          <mxGeometry relative="1" as="geometry">
            <mxPoint x="1273" y="5270" as="sourcePoint" />
            <mxPoint x="1273" y="5332" as="targetPoint" />
            <Array as="points">
              <mxPoint x="1010" y="5220" />
              <mxPoint x="1028" y="6670" />
            </Array>
          </mxGeometry>
        </mxCell>
        <mxCell id="r9nbk0LdOQmlGf_u9DRD-38" value="NO" style="text;html=1;align=center;verticalAlign=middle;resizable=0;points=[];autosize=1;strokeColor=none;fillColor=none;fontSize=16;" vertex="1" parent="1">
          <mxGeometry x="1174" y="5186" width="42" height="31" as="geometry" />
        </mxCell>
      </root>
    </mxGraphModel>
  </diagram>
</mxfile>
